<mxfile host="app.diagrams.net" agent="Mozilla/5.0 (X11; Linux x86_64; rv:138.0) Gecko/20100101 Firefox/138.0" version="26.2.14">
  <diagram name="Page-1" id="ElEJQn2bmnE-FZxb2ZQC">
    <mxGraphModel dx="1426" dy="1032" grid="1" gridSize="10" guides="1" tooltips="1" connect="1" arrows="1" fold="1" page="1" pageScale="1" pageWidth="850" pageHeight="1100" math="0" shadow="0">
      <root>
        <mxCell id="0" />
        <mxCell id="1" parent="0" />
        <mxCell id="iszfN2IdjPFp7sUso98m-4" value="&lt;div&gt;language specific &lt;br&gt;&lt;/div&gt;" style="text;html=1;align=center;verticalAlign=middle;resizable=0;points=[];autosize=1;strokeColor=none;fillColor=none;" parent="1" vertex="1">
          <mxGeometry x="5" y="170" width="120" height="30" as="geometry" />
        </mxCell>
        <mxCell id="iszfN2IdjPFp7sUso98m-16" value="compiler " style="text;html=1;align=center;verticalAlign=middle;resizable=0;points=[];autosize=1;strokeColor=none;fillColor=none;" parent="1" vertex="1">
          <mxGeometry x="30" y="650" width="70" height="30" as="geometry" />
        </mxCell>
        <mxCell id="iszfN2IdjPFp7sUso98m-23" value="runtime" style="text;html=1;align=center;verticalAlign=middle;resizable=0;points=[];autosize=1;strokeColor=none;fillColor=none;" parent="1" vertex="1">
          <mxGeometry x="35" y="440" width="60" height="30" as="geometry" />
        </mxCell>
        <mxCell id="iszfN2IdjPFp7sUso98m-29" value="&lt;div&gt;platform dependent&lt;/div&gt;" style="text;html=1;align=center;verticalAlign=middle;resizable=0;points=[];autosize=1;strokeColor=none;fillColor=none;" parent="1" vertex="1">
          <mxGeometry y="800" width="130" height="30" as="geometry" />
        </mxCell>
        <mxCell id="W1j_OMC8sU-0vIkcnZWJ-1" value="" style="group" vertex="1" connectable="0" parent="1">
          <mxGeometry x="140" y="137.245" width="200" height="662.7599999999999" as="geometry" />
        </mxCell>
        <mxCell id="Kvmyp9nTmgMz7uB1PPaK-2" value="" style="rounded=0;whiteSpace=wrap;html=1;rotation=90;movable=1;resizable=1;rotatable=1;deletable=1;editable=1;locked=0;connectable=1;" parent="W1j_OMC8sU-0vIkcnZWJ-1" vertex="1">
          <mxGeometry x="-231.20999999999998" y="233.09499999999997" width="662.76" height="196.57" as="geometry" />
        </mxCell>
        <mxCell id="Kvmyp9nTmgMz7uB1PPaK-3" value="&lt;div&gt;unsafe functions &lt;br&gt;&lt;/div&gt;" style="text;html=1;align=center;verticalAlign=middle;resizable=1;points=[];autosize=1;strokeColor=none;fillColor=none;movable=1;rotatable=1;deletable=1;editable=1;locked=0;connectable=1;" parent="W1j_OMC8sU-0vIkcnZWJ-1" vertex="1">
          <mxGeometry x="39.72602739726028" y="16.014999999999986" width="120.54794520547945" height="30" as="geometry" />
        </mxCell>
        <mxCell id="Kvmyp9nTmgMz7uB1PPaK-4" value="&lt;div&gt;integer overflow&lt;/div&gt;" style="text;html=1;align=center;verticalAlign=middle;resizable=1;points=[];autosize=1;strokeColor=none;fillColor=none;movable=1;rotatable=1;deletable=1;editable=1;locked=0;connectable=1;" parent="W1j_OMC8sU-0vIkcnZWJ-1" vertex="1">
          <mxGeometry x="39.72602739726028" y="46.014999999999986" width="120.54794520547945" height="30" as="geometry" />
        </mxCell>
        <mxCell id="Kvmyp9nTmgMz7uB1PPaK-5" value="incorrect format specifiers" style="text;html=1;align=center;verticalAlign=middle;resizable=1;points=[];autosize=1;strokeColor=none;fillColor=none;movable=1;rotatable=1;deletable=1;editable=1;locked=0;connectable=1;" parent="W1j_OMC8sU-0vIkcnZWJ-1" vertex="1">
          <mxGeometry x="12.328767123287662" y="76.01499999999999" width="175.34246575342465" height="30" as="geometry" />
        </mxCell>
        <mxCell id="Kvmyp9nTmgMz7uB1PPaK-6" value="&lt;div&gt;Stack based buffer overflow&lt;/div&gt;" style="text;html=1;align=center;verticalAlign=middle;resizable=1;points=[];autosize=1;strokeColor=none;fillColor=none;movable=1;rotatable=1;deletable=1;editable=1;locked=0;connectable=1;" parent="W1j_OMC8sU-0vIkcnZWJ-1" vertex="1">
          <mxGeometry x="6.849315068493155" y="106.01499999999999" width="186.3013698630137" height="30" as="geometry" />
        </mxCell>
        <mxCell id="Kvmyp9nTmgMz7uB1PPaK-7" value="&lt;div&gt;heap based buffer overflow&lt;/div&gt;" style="text;html=1;align=center;verticalAlign=middle;resizable=1;points=[];autosize=1;strokeColor=none;fillColor=none;movable=1;rotatable=1;deletable=1;editable=1;locked=0;connectable=1;" parent="W1j_OMC8sU-0vIkcnZWJ-1" vertex="1">
          <mxGeometry x="6.849315068493155" y="136.015" width="186.3013698630137" height="30" as="geometry" />
        </mxCell>
        <mxCell id="Kvmyp9nTmgMz7uB1PPaK-8" value="&lt;div&gt;use-after free&lt;/div&gt;" style="text;html=1;align=center;verticalAlign=middle;resizable=1;points=[];autosize=1;strokeColor=none;fillColor=none;movable=1;rotatable=1;deletable=1;editable=1;locked=0;connectable=1;" parent="W1j_OMC8sU-0vIkcnZWJ-1" vertex="1">
          <mxGeometry x="50.684931506849296" y="166.015" width="98.63013698630137" height="30" as="geometry" />
        </mxCell>
        <mxCell id="Kvmyp9nTmgMz7uB1PPaK-9" value="Improper array validation" style="text;html=1;align=center;verticalAlign=middle;resizable=1;points=[];autosize=1;strokeColor=none;fillColor=none;movable=1;rotatable=1;deletable=1;editable=1;locked=0;connectable=1;" parent="W1j_OMC8sU-0vIkcnZWJ-1" vertex="1">
          <mxGeometry x="12.328767123287662" y="196.015" width="175.34246575342465" height="30" as="geometry" />
        </mxCell>
        <mxCell id="iszfN2IdjPFp7sUso98m-18" value="Standard library mismatch" style="text;html=1;align=center;verticalAlign=middle;resizable=0;points=[];autosize=1;strokeColor=none;fillColor=none;" parent="W1j_OMC8sU-0vIkcnZWJ-1" vertex="1">
          <mxGeometry x="20" y="446.015" width="160" height="30" as="geometry" />
        </mxCell>
        <mxCell id="W1j_OMC8sU-0vIkcnZWJ-64" style="edgeStyle=orthogonalEdgeStyle;rounded=0;orthogonalLoop=1;jettySize=auto;html=1;fontFamily=Helvetica;fontSize=12;fontColor=default;" edge="1" parent="W1j_OMC8sU-0vIkcnZWJ-1" source="iszfN2IdjPFp7sUso98m-19">
          <mxGeometry relative="1" as="geometry">
            <mxPoint x="270" y="452.755" as="targetPoint" />
            <Array as="points">
              <mxPoint x="271" y="491" />
            </Array>
          </mxGeometry>
        </mxCell>
        <mxCell id="iszfN2IdjPFp7sUso98m-19" value="Standard library mismatch 2" style="text;html=1;align=center;verticalAlign=middle;resizable=0;points=[];autosize=1;strokeColor=none;fillColor=none;" parent="W1j_OMC8sU-0vIkcnZWJ-1" vertex="1">
          <mxGeometry x="15" y="476.015" width="170" height="30" as="geometry" />
        </mxCell>
        <mxCell id="iszfN2IdjPFp7sUso98m-20" value="Optimization erors" style="text;html=1;align=center;verticalAlign=middle;resizable=0;points=[];autosize=1;strokeColor=none;fillColor=none;" parent="W1j_OMC8sU-0vIkcnZWJ-1" vertex="1">
          <mxGeometry x="40" y="506.015" width="120" height="30" as="geometry" />
        </mxCell>
        <mxCell id="iszfN2IdjPFp7sUso98m-21" value="Optimization erors 2" style="text;html=1;align=center;verticalAlign=middle;resizable=0;points=[];autosize=1;strokeColor=none;fillColor=none;" parent="W1j_OMC8sU-0vIkcnZWJ-1" vertex="1">
          <mxGeometry x="35" y="536.015" width="130" height="30" as="geometry" />
        </mxCell>
        <mxCell id="iszfN2IdjPFp7sUso98m-24" value="&lt;div&gt;pointer size mismatch&lt;/div&gt;" style="text;html=1;align=center;verticalAlign=middle;resizable=0;points=[];autosize=1;strokeColor=none;fillColor=none;" parent="W1j_OMC8sU-0vIkcnZWJ-1" vertex="1">
          <mxGeometry x="30" y="571.015" width="140" height="30" as="geometry" />
        </mxCell>
        <mxCell id="iszfN2IdjPFp7sUso98m-25" value="Number size mismatch" style="text;html=1;align=center;verticalAlign=middle;resizable=0;points=[];autosize=1;strokeColor=none;fillColor=none;" parent="W1j_OMC8sU-0vIkcnZWJ-1" vertex="1">
          <mxGeometry x="25" y="601.015" width="150" height="30" as="geometry" />
        </mxCell>
        <mxCell id="iszfN2IdjPFp7sUso98m-26" value="&lt;div&gt;Uninitialized data&lt;/div&gt;" style="text;html=1;align=center;verticalAlign=middle;resizable=0;points=[];autosize=1;strokeColor=none;fillColor=none;" parent="W1j_OMC8sU-0vIkcnZWJ-1" vertex="1">
          <mxGeometry x="44.99000000000001" y="631.015" width="110" height="30" as="geometry" />
        </mxCell>
        <mxCell id="iszfN2IdjPFp7sUso98m-5" value="&lt;div&gt;type confusion&lt;/div&gt;" style="text;html=1;align=center;verticalAlign=middle;resizable=0;points=[];autosize=1;strokeColor=none;fillColor=none;" parent="W1j_OMC8sU-0vIkcnZWJ-1" vertex="1">
          <mxGeometry x="50" y="231.015" width="100" height="30" as="geometry" />
        </mxCell>
        <mxCell id="iszfN2IdjPFp7sUso98m-6" value="redirecting indirect calls" style="text;html=1;align=center;verticalAlign=middle;resizable=0;points=[];autosize=1;strokeColor=none;fillColor=none;" parent="W1j_OMC8sU-0vIkcnZWJ-1" vertex="1">
          <mxGeometry x="26.25" y="261.015" width="150" height="30" as="geometry" />
        </mxCell>
        <mxCell id="iszfN2IdjPFp7sUso98m-7" value="memory growth race condition" style="text;html=1;align=center;verticalAlign=middle;resizable=0;points=[];autosize=1;strokeColor=none;fillColor=none;" parent="W1j_OMC8sU-0vIkcnZWJ-1" vertex="1">
          <mxGeometry x="12.5" y="291.015" width="180" height="30" as="geometry" />
        </mxCell>
        <mxCell id="iszfN2IdjPFp7sUso98m-8" value="Bytecode level calculation errors" style="text;html=1;align=center;verticalAlign=middle;resizable=0;points=[];autosize=1;strokeColor=none;fillColor=none;" parent="W1j_OMC8sU-0vIkcnZWJ-1" vertex="1">
          <mxGeometry y="321.015" width="200" height="30" as="geometry" />
        </mxCell>
        <mxCell id="iszfN2IdjPFp7sUso98m-9" value="PC stack off-by-one" style="text;html=1;align=center;verticalAlign=middle;resizable=0;points=[];autosize=1;strokeColor=none;fillColor=none;" parent="W1j_OMC8sU-0vIkcnZWJ-1" vertex="1">
          <mxGeometry x="35" y="351.015" width="130" height="30" as="geometry" />
        </mxCell>
        <mxCell id="iszfN2IdjPFp7sUso98m-12" value="Bytecode heap spraying" style="text;html=1;align=center;verticalAlign=middle;resizable=0;points=[];autosize=1;strokeColor=none;fillColor=none;" parent="W1j_OMC8sU-0vIkcnZWJ-1" vertex="1">
          <mxGeometry x="25" y="381.015" width="150" height="30" as="geometry" />
        </mxCell>
        <mxCell id="iszfN2IdjPFp7sUso98m-13" value="WASM Parser" style="text;html=1;align=center;verticalAlign=middle;resizable=0;points=[];autosize=1;strokeColor=none;fillColor=none;" parent="W1j_OMC8sU-0vIkcnZWJ-1" vertex="1">
          <mxGeometry x="52.5" y="411.015" width="100" height="30" as="geometry" />
        </mxCell>
        <mxCell id="W1j_OMC8sU-0vIkcnZWJ-2" value="vulnerabilities " style="text;html=1;align=center;verticalAlign=middle;resizable=0;points=[];autosize=1;strokeColor=none;fillColor=none;fontFamily=Helvetica;fontSize=12;fontColor=default;" vertex="1" parent="1">
          <mxGeometry x="180" y="100" width="100" height="30" as="geometry" />
        </mxCell>
        <mxCell id="W1j_OMC8sU-0vIkcnZWJ-27" value="" style="rounded=0;whiteSpace=wrap;html=1;pointerEvents=0;align=center;verticalAlign=top;fontFamily=Helvetica;fontSize=12;fontColor=default;fillColor=none;gradientColor=none;" vertex="1" parent="1">
          <mxGeometry x="410" y="137.24" width="180" height="662.76" as="geometry" />
        </mxCell>
        <mxCell id="W1j_OMC8sU-0vIkcnZWJ-29" value="&lt;div&gt;buffer overflow attack (stack)&lt;/div&gt;" style="text;html=1;align=center;verticalAlign=middle;resizable=0;points=[];autosize=1;strokeColor=none;fillColor=none;fontFamily=Helvetica;fontSize=12;fontColor=default;" vertex="1" parent="1">
          <mxGeometry x="410" y="150" width="180" height="30" as="geometry" />
        </mxCell>
        <mxCell id="W1j_OMC8sU-0vIkcnZWJ-31" value="&lt;div&gt;buffer overflow attack (heap)&lt;/div&gt;" style="text;html=1;align=center;verticalAlign=middle;resizable=0;points=[];autosize=1;strokeColor=none;fillColor=none;fontFamily=Helvetica;fontSize=12;fontColor=default;" vertex="1" parent="1">
          <mxGeometry x="415" y="180" width="170" height="30" as="geometry" />
        </mxCell>
        <mxCell id="W1j_OMC8sU-0vIkcnZWJ-32" value="Integer overflow attack " style="text;html=1;align=center;verticalAlign=middle;resizable=0;points=[];autosize=1;strokeColor=none;fillColor=none;fontFamily=Helvetica;fontSize=12;fontColor=default;" vertex="1" parent="1">
          <mxGeometry x="430" y="210" width="140" height="30" as="geometry" />
        </mxCell>
        <mxCell id="W1j_OMC8sU-0vIkcnZWJ-35" value="buffer boundary violation" style="text;html=1;align=center;verticalAlign=middle;resizable=0;points=[];autosize=1;strokeColor=none;fillColor=none;fontFamily=Helvetica;fontSize=12;fontColor=default;" vertex="1" parent="1">
          <mxGeometry x="425" y="240" width="150" height="30" as="geometry" />
        </mxCell>
        <mxCell id="W1j_OMC8sU-0vIkcnZWJ-36" value="format string attack" style="text;html=1;align=center;verticalAlign=middle;resizable=0;points=[];autosize=1;strokeColor=none;fillColor=none;fontFamily=Helvetica;fontSize=12;fontColor=default;" vertex="1" parent="1">
          <mxGeometry x="430" y="270" width="130" height="30" as="geometry" />
        </mxCell>
        <mxCell id="W1j_OMC8sU-0vIkcnZWJ-37" value="use after free exploitation" style="text;html=1;align=center;verticalAlign=middle;resizable=0;points=[];autosize=1;strokeColor=none;fillColor=none;fontFamily=Helvetica;fontSize=12;fontColor=default;" vertex="1" parent="1">
          <mxGeometry x="420" y="300" width="160" height="30" as="geometry" />
        </mxCell>
        <mxCell id="W1j_OMC8sU-0vIkcnZWJ-38" value="type confusion attack" style="text;html=1;align=center;verticalAlign=middle;resizable=0;points=[];autosize=1;strokeColor=none;fillColor=none;fontFamily=Helvetica;fontSize=12;fontColor=default;" vertex="1" parent="1">
          <mxGeometry x="430" y="330" width="140" height="30" as="geometry" />
        </mxCell>
        <mxCell id="W1j_OMC8sU-0vIkcnZWJ-39" value="memory growth attack" style="text;html=1;align=center;verticalAlign=middle;resizable=0;points=[];autosize=1;strokeColor=none;fillColor=none;fontFamily=Helvetica;fontSize=12;fontColor=default;" vertex="1" parent="1">
          <mxGeometry x="430" y="360" width="140" height="30" as="geometry" />
        </mxCell>
        <mxCell id="W1j_OMC8sU-0vIkcnZWJ-40" value="slot misallocation attack" style="text;html=1;align=center;verticalAlign=middle;resizable=0;points=[];autosize=1;strokeColor=none;fillColor=none;fontFamily=Helvetica;fontSize=12;fontColor=default;" vertex="1" parent="1">
          <mxGeometry x="425" y="390" width="150" height="30" as="geometry" />
        </mxCell>
        <mxCell id="W1j_OMC8sU-0vIkcnZWJ-41" value="control flow hijack attack" style="text;html=1;align=center;verticalAlign=middle;resizable=0;points=[];autosize=1;strokeColor=none;fillColor=none;fontFamily=Helvetica;fontSize=12;fontColor=default;" vertex="1" parent="1">
          <mxGeometry x="425" y="420" width="150" height="30" as="geometry" />
        </mxCell>
        <mxCell id="W1j_OMC8sU-0vIkcnZWJ-42" value="selection validation bypass" style="text;html=1;align=center;verticalAlign=middle;resizable=0;points=[];autosize=1;strokeColor=none;fillColor=none;fontFamily=Helvetica;fontSize=12;fontColor=default;" vertex="1" parent="1">
          <mxGeometry x="415" y="450" width="170" height="30" as="geometry" />
        </mxCell>
        <mxCell id="W1j_OMC8sU-0vIkcnZWJ-45" value="invalid pointer persistence" style="text;html=1;align=center;verticalAlign=middle;resizable=0;points=[];autosize=1;strokeColor=none;fillColor=none;fontFamily=Helvetica;fontSize=12;fontColor=default;" vertex="1" parent="1">
          <mxGeometry x="420" y="480" width="160" height="30" as="geometry" />
        </mxCell>
        <mxCell id="W1j_OMC8sU-0vIkcnZWJ-46" value="library mismatch" style="text;html=1;align=center;verticalAlign=middle;resizable=0;points=[];autosize=1;strokeColor=none;fillColor=none;fontFamily=Helvetica;fontSize=12;fontColor=default;" vertex="1" parent="1">
          <mxGeometry x="440" y="570" width="110" height="30" as="geometry" />
        </mxCell>
        <mxCell id="W1j_OMC8sU-0vIkcnZWJ-47" style="edgeStyle=orthogonalEdgeStyle;rounded=0;orthogonalLoop=1;jettySize=auto;html=1;entryX=0;entryY=0.5;entryDx=0;entryDy=0;entryPerimeter=0;fontFamily=Helvetica;fontSize=12;fontColor=default;" edge="1" parent="1" source="Kvmyp9nTmgMz7uB1PPaK-3" target="W1j_OMC8sU-0vIkcnZWJ-29">
          <mxGeometry relative="1" as="geometry" />
        </mxCell>
        <mxCell id="W1j_OMC8sU-0vIkcnZWJ-48" style="edgeStyle=orthogonalEdgeStyle;rounded=0;orthogonalLoop=1;jettySize=auto;html=1;fontFamily=Helvetica;fontSize=12;fontColor=default;entryX=0;entryY=0.333;entryDx=0;entryDy=0;entryPerimeter=0;" edge="1" parent="1" source="Kvmyp9nTmgMz7uB1PPaK-6" target="W1j_OMC8sU-0vIkcnZWJ-29">
          <mxGeometry relative="1" as="geometry">
            <mxPoint x="380" y="160" as="targetPoint" />
          </mxGeometry>
        </mxCell>
        <mxCell id="W1j_OMC8sU-0vIkcnZWJ-49" style="edgeStyle=orthogonalEdgeStyle;rounded=0;orthogonalLoop=1;jettySize=auto;html=1;entryX=0.006;entryY=0.533;entryDx=0;entryDy=0;entryPerimeter=0;fontFamily=Helvetica;fontSize=12;fontColor=default;" edge="1" parent="1" source="Kvmyp9nTmgMz7uB1PPaK-7" target="W1j_OMC8sU-0vIkcnZWJ-31">
          <mxGeometry relative="1" as="geometry" />
        </mxCell>
        <mxCell id="W1j_OMC8sU-0vIkcnZWJ-50" style="edgeStyle=orthogonalEdgeStyle;rounded=0;orthogonalLoop=1;jettySize=auto;html=1;entryX=-0.006;entryY=0.134;entryDx=0;entryDy=0;entryPerimeter=0;fontFamily=Helvetica;fontSize=12;fontColor=default;" edge="1" parent="1" source="Kvmyp9nTmgMz7uB1PPaK-4" target="W1j_OMC8sU-0vIkcnZWJ-27">
          <mxGeometry relative="1" as="geometry" />
        </mxCell>
        <mxCell id="W1j_OMC8sU-0vIkcnZWJ-51" style="edgeStyle=orthogonalEdgeStyle;rounded=0;orthogonalLoop=1;jettySize=auto;html=1;entryX=0.011;entryY=0.132;entryDx=0;entryDy=0;entryPerimeter=0;fontFamily=Helvetica;fontSize=12;fontColor=default;" edge="1" parent="1" source="Kvmyp9nTmgMz7uB1PPaK-9" target="W1j_OMC8sU-0vIkcnZWJ-27">
          <mxGeometry relative="1" as="geometry">
            <Array as="points">
              <mxPoint x="369" y="348" />
              <mxPoint x="369" y="240" />
              <mxPoint x="412" y="240" />
            </Array>
          </mxGeometry>
        </mxCell>
        <mxCell id="W1j_OMC8sU-0vIkcnZWJ-52" style="edgeStyle=orthogonalEdgeStyle;rounded=0;orthogonalLoop=1;jettySize=auto;html=1;entryX=0.011;entryY=0.178;entryDx=0;entryDy=0;entryPerimeter=0;fontFamily=Helvetica;fontSize=12;fontColor=default;" edge="1" parent="1" source="Kvmyp9nTmgMz7uB1PPaK-9" target="W1j_OMC8sU-0vIkcnZWJ-27">
          <mxGeometry relative="1" as="geometry" />
        </mxCell>
        <mxCell id="W1j_OMC8sU-0vIkcnZWJ-53" style="edgeStyle=orthogonalEdgeStyle;rounded=0;orthogonalLoop=1;jettySize=auto;html=1;entryX=0.006;entryY=0.227;entryDx=0;entryDy=0;entryPerimeter=0;fontFamily=Helvetica;fontSize=12;fontColor=default;" edge="1" parent="1" source="Kvmyp9nTmgMz7uB1PPaK-5" target="W1j_OMC8sU-0vIkcnZWJ-27">
          <mxGeometry relative="1" as="geometry" />
        </mxCell>
        <mxCell id="W1j_OMC8sU-0vIkcnZWJ-54" style="edgeStyle=orthogonalEdgeStyle;rounded=0;orthogonalLoop=1;jettySize=auto;html=1;entryX=-0.011;entryY=0.273;entryDx=0;entryDy=0;entryPerimeter=0;fontFamily=Helvetica;fontSize=12;fontColor=default;" edge="1" parent="1" source="Kvmyp9nTmgMz7uB1PPaK-8" target="W1j_OMC8sU-0vIkcnZWJ-27">
          <mxGeometry relative="1" as="geometry" />
        </mxCell>
        <mxCell id="W1j_OMC8sU-0vIkcnZWJ-55" style="edgeStyle=orthogonalEdgeStyle;rounded=0;orthogonalLoop=1;jettySize=auto;html=1;entryX=0.006;entryY=0.318;entryDx=0;entryDy=0;entryPerimeter=0;fontFamily=Helvetica;fontSize=12;fontColor=default;" edge="1" parent="1" source="iszfN2IdjPFp7sUso98m-5" target="W1j_OMC8sU-0vIkcnZWJ-27">
          <mxGeometry relative="1" as="geometry" />
        </mxCell>
        <mxCell id="W1j_OMC8sU-0vIkcnZWJ-56" style="edgeStyle=orthogonalEdgeStyle;rounded=0;orthogonalLoop=1;jettySize=auto;html=1;fontFamily=Helvetica;fontSize=12;fontColor=default;entryX=0.006;entryY=0.538;entryDx=0;entryDy=0;entryPerimeter=0;" edge="1" parent="1" source="iszfN2IdjPFp7sUso98m-6" target="W1j_OMC8sU-0vIkcnZWJ-27">
          <mxGeometry relative="1" as="geometry">
            <mxPoint x="390" y="400" as="targetPoint" />
          </mxGeometry>
        </mxCell>
        <mxCell id="W1j_OMC8sU-0vIkcnZWJ-57" style="edgeStyle=orthogonalEdgeStyle;rounded=0;orthogonalLoop=1;jettySize=auto;html=1;entryX=-0.006;entryY=0.366;entryDx=0;entryDy=0;entryPerimeter=0;fontFamily=Helvetica;fontSize=12;fontColor=default;" edge="1" parent="1" source="iszfN2IdjPFp7sUso98m-7" target="W1j_OMC8sU-0vIkcnZWJ-27">
          <mxGeometry relative="1" as="geometry" />
        </mxCell>
        <mxCell id="W1j_OMC8sU-0vIkcnZWJ-58" style="edgeStyle=orthogonalEdgeStyle;rounded=0;orthogonalLoop=1;jettySize=auto;html=1;entryX=0.006;entryY=0.409;entryDx=0;entryDy=0;entryPerimeter=0;fontFamily=Helvetica;fontSize=12;fontColor=default;" edge="1" parent="1" source="iszfN2IdjPFp7sUso98m-8" target="W1j_OMC8sU-0vIkcnZWJ-27">
          <mxGeometry relative="1" as="geometry" />
        </mxCell>
        <mxCell id="W1j_OMC8sU-0vIkcnZWJ-59" style="edgeStyle=orthogonalEdgeStyle;rounded=0;orthogonalLoop=1;jettySize=auto;html=1;entryX=-0.011;entryY=0.457;entryDx=0;entryDy=0;entryPerimeter=0;fontFamily=Helvetica;fontSize=12;fontColor=default;" edge="1" parent="1" source="iszfN2IdjPFp7sUso98m-9" target="W1j_OMC8sU-0vIkcnZWJ-27">
          <mxGeometry relative="1" as="geometry" />
        </mxCell>
        <mxCell id="W1j_OMC8sU-0vIkcnZWJ-60" style="edgeStyle=orthogonalEdgeStyle;rounded=0;orthogonalLoop=1;jettySize=auto;html=1;entryX=-0.006;entryY=0.455;entryDx=0;entryDy=0;entryPerimeter=0;fontFamily=Helvetica;fontSize=12;fontColor=default;" edge="1" parent="1" source="iszfN2IdjPFp7sUso98m-12" target="W1j_OMC8sU-0vIkcnZWJ-27">
          <mxGeometry relative="1" as="geometry" />
        </mxCell>
        <mxCell id="W1j_OMC8sU-0vIkcnZWJ-61" style="edgeStyle=orthogonalEdgeStyle;rounded=0;orthogonalLoop=1;jettySize=auto;html=1;entryX=0;entryY=0.5;entryDx=0;entryDy=0;fontFamily=Helvetica;fontSize=12;fontColor=default;" edge="1" parent="1" source="iszfN2IdjPFp7sUso98m-13" target="W1j_OMC8sU-0vIkcnZWJ-27">
          <mxGeometry relative="1" as="geometry" />
        </mxCell>
        <mxCell id="W1j_OMC8sU-0vIkcnZWJ-63" style="edgeStyle=orthogonalEdgeStyle;rounded=0;orthogonalLoop=1;jettySize=auto;html=1;entryX=-0.017;entryY=0.682;entryDx=0;entryDy=0;entryPerimeter=0;fontFamily=Helvetica;fontSize=12;fontColor=default;" edge="1" parent="1" source="iszfN2IdjPFp7sUso98m-18" target="W1j_OMC8sU-0vIkcnZWJ-27">
          <mxGeometry relative="1" as="geometry" />
        </mxCell>
        <mxCell id="W1j_OMC8sU-0vIkcnZWJ-66" value="&lt;div&gt;attacks&lt;/div&gt;" style="text;html=1;align=center;verticalAlign=middle;resizable=0;points=[];autosize=1;strokeColor=none;fillColor=none;fontFamily=Helvetica;fontSize=12;fontColor=default;" vertex="1" parent="1">
          <mxGeometry x="470" y="100" width="60" height="30" as="geometry" />
        </mxCell>
      </root>
    </mxGraphModel>
  </diagram>
</mxfile>
